<?xml version="1.0" encoding="UTF-8"?>
<svg id="Layer_1" data-name="Layer 1" xmlns="http://www.w3.org/2000/svg" viewBox="0 0 384 384">
  <defs>
    <style>
      .cls-1 {
        fill: #ebebeb;
        stroke-width: 0px;
      }
    </style>
  </defs>
  <path class="cls-1" d="M191.92,287.56c-51.58-.23-95.16-40.84-95.44-95.09-.27-52.8,40.84-95.64,95.21-96.03,53.05-.38,95.25,42.25,95.86,95.06.61,52.31-41.88,95.29-95.63,96.06ZM256.52,192.02c.04-35.32-29.15-64.53-64.48-64.54-35.35,0-64.53,29.14-64.55,64.48-.02,35.27,29.19,64.52,64.49,64.55,35.3.03,64.51-29.15,64.55-64.5Z"/>
  <path class="cls-1" d="M285.51,117c-8.4-.27-13.1-3.18-15.97-8.71-2.93-5.64-2.34-11.45,1.59-16.18,4.44-5.34,9.42-10.35,14.72-14.84,6.29-5.33,15.79-4.36,21.04,1.42,5.53,6.08,5.66,14.88-.02,21.1-4.11,4.51-8.34,8.99-13.02,12.87-2.82,2.33-6.62,3.48-8.34,4.34Z"/>
  <path class="cls-1" d="M55.69,208.08c-4.08-.44-8.31-.33-12.19-1.43-7.16-2.03-11.7-9.09-11.02-15.93.75-7.41,6.6-13.59,14.23-14.14,6.21-.44,12.51-.45,18.72.04,8.2.65,13.97,7.36,13.98,15.38,0,8.03-5.76,14.57-13.94,15.45-3.21.34-6.49.06-9.73.06-.01.2-.03.39-.04.59Z"/>
  <path class="cls-1" d="M327.91,207.56c-2.87,0-5.76.19-8.62-.04-8.58-.69-14.7-7.24-14.7-15.53s6.12-14.97,14.7-15.5c5.72-.36,11.5-.35,17.23-.03,8.55.47,15.17,7.59,15.05,15.72-.12,8.03-6.64,14.77-15.05,15.37-2.86.21-5.74.03-8.62.03,0,0,0-.02,0-.03Z"/>
  <path class="cls-1" d="M176.41,327.83c0-2.75-.16-5.51.03-8.24.61-8.77,7.21-15.03,15.64-14.99,8.28.04,14.91,6.18,15.43,14.78.34,5.73.34,11.5.02,17.23-.48,8.38-7.42,14.91-15.42,14.97-8.14.07-15.09-6.57-15.67-15.13-.2-2.86-.03-5.74-.03-8.62Z"/>
  <path class="cls-1" d="M175.95,55.93c.4-4.08.26-8.31,1.33-12.21,2-7.33,9.19-12,16.15-11.22,7.41.83,13.5,6.72,14.02,14.35.42,6.09.43,12.26-.02,18.34-.61,8.37-7.39,14.27-15.57,14.22-7.99-.05-14.48-5.9-15.32-14.08-.32-3.09-.05-6.24-.05-9.36-.18-.01-.36-.02-.54-.04Z"/>
  <path class="cls-1" d="M75.12,91.52c.57-6.44,3.14-11.22,8.63-14.02,5.5-2.8,11.36-2.95,16.21,1.09,5.05,4.2,9.83,8.88,14,13.95,4.76,5.8,3.79,14.11-1.4,19.49-5.37,5.56-13.78,6.87-19.7,2.1-5.29-4.27-10-9.36-14.45-14.53-1.8-2.09-2.23-5.35-3.28-8.08Z"/>
  <path class="cls-1" d="M74.79,295.09c.01-6.48,2.37-10.46,5.98-13.83,2.83-2.64,5.69-5.24,8.54-7.86,6.87-6.3,16.03-6.38,22.21-.2,6.21,6.19,6.2,15.41-.15,22.17-3.16,3.37-6.36,6.73-9.83,9.76-5.28,4.62-11.44,5.61-17.8,2.62-5.78-2.72-8.81-7.55-8.96-12.65Z"/>
  <path class="cls-1" d="M286.45,269.69c3.11,1.6,6.52,2.8,9.25,4.9,3.24,2.49,6.01,5.64,8.78,8.69,6.11,6.71,6.32,15.91.65,21.67-5.72,5.81-15.48,5.95-22.06-.07-3.67-3.36-7.11-7.06-10.11-11.03-3.39-4.48-3.18-9.75-.82-14.6,2.73-5.59,7.44-8.62,13.84-8.63.16-.31.32-.62.48-.94Z"/>
  <path class="cls-1" d="M239.48,192.06c-.07,25.76-20.31,46.61-45.93,47.3-9.98.27-16.98-5.81-17.1-15.78-.25-21.1-.26-42.2.01-63.3.13-10.04,7.58-16.28,17.59-15.67,26.02,1.59,45.49,21.92,45.43,47.44Z"/>
</svg>