<?xml version="1.0" encoding="UTF-8"?>
<svg id="Layer_1" data-name="Layer 1" xmlns="http://www.w3.org/2000/svg" viewBox="0 0 1920 1080">
  <defs>
    <style>
      .cls-1 {
        fill: #fbfbfb;
      }

      .cls-1, .cls-2 {
        stroke-width: 0px;
      }

      .cls-2 {
        fill: #45b1c9;
      }
    </style>
  </defs>
  <path class="cls-2" d="M124.61,532.13v-22.82l145.3-57.46v25.02l-116.85,43.99,116.85,43.58v25.16l-145.3-57.46Z"/>
  <path class="cls-2" d="M366.28,612.69c-6.23,0-11.5-2.15-15.81-6.46-4.31-4.31-6.46-9.9-6.46-16.77s2.15-12.46,6.46-16.77,9.58-6.46,15.81-6.46,11.5,2.16,15.81,6.46c4.31,4.31,6.46,9.9,6.46,16.77s-2.15,12.46-6.46,16.77c-4.31,4.31-9.58,6.46-15.81,6.46Z"/>
  <path class="cls-1" d="M459.07,646.09h32.03c8.61,0,15.46-2.77,20.55-8.32,5.09-5.55,8.77-14.23,11.07-26.05l26.39-137.06h-43.58l3.85-19.66h69.01l-30.38,156.71c-3.76,19.43-10.29,33.59-19.59,42.48-9.3,8.89-22.2,13.33-38.7,13.33h-34.92l4.26-21.45ZM562.99,427.1c-2.57,0-3.85-1.15-3.85-3.44,0-.37.05-.73.14-1.1l4.67-23.78c.37-2.47,1.83-3.71,4.4-3.71h17.05c2.56,0,3.85,1.15,3.85,3.44,0,.37-.05.73-.14,1.1l-4.67,23.78c-.37,2.47-1.83,3.71-4.4,3.71h-17.05Z"/>
  <path class="cls-1" d="M697.16,612.96c-20.62,0-36.22-5.09-46.81-15.26-10.59-10.17-15.88-25.25-15.88-45.23,0-13.56,2.29-26.44,6.87-38.63,4.58-12.19,10.88-23,18.9-32.44,8.02-9.44,17.25-16.86,27.7-22.27,10.45-5.41,21.54-8.11,33.27-8.11,16.31,0,29.49,5.27,39.52,15.81,10.04,10.54,15.05,24.7,15.05,42.48,0,7.42-1.01,17-3.02,28.73h-110.94c-1.1,5.5-1.65,10.54-1.65,15.12,0,12.28,3.53,21.74,10.58,28.39,7.06,6.65,17.14,9.97,30.24,9.97,17.05,0,36.06-5.18,57.05-15.53l-4.95,25.16c-19.34,7.88-37.99,11.82-55.95,11.82ZM749.95,518.38c.92-4.31,1.37-8.2,1.37-11.69,0-10.45-2.96-18.72-8.87-24.81-5.91-6.09-13.91-9.14-23.99-9.14-11.82,0-22.45,4.17-31.89,12.51-9.44,8.34-16.08,19.38-19.93,33.13h83.31Z"/>
  <path class="cls-1" d="M855.39,612.96c-14.85,0-31.21-3.21-49.08-9.62l5.09-26.12c17.78,9.71,33.59,14.57,47.43,14.57,5.96,0,12.26-.94,18.9-2.82,6.64-1.88,12.26-4.83,16.84-8.87,4.58-4.03,6.87-9.26,6.87-15.67,0-5.41-2.11-9.85-6.32-13.33-4.22-3.48-11.09-6.51-20.62-9.07l-13.06-3.44c-12.01-3.21-20.74-7.74-26.19-13.61-5.45-5.86-8.18-13.75-8.18-23.64,0-9.16,1.97-16.93,5.91-23.3,3.94-6.37,9.19-11.52,15.74-15.47,6.55-3.94,13.84-6.8,21.86-8.59,8.02-1.79,16.15-2.68,24.4-2.68,16.04,0,30.56,3.02,43.58,9.07l-4.81,24.74c-12.74-8.43-26.94-12.65-42.61-12.65-11.55,0-20.92,2.36-28.11,7.08-7.2,4.72-10.79,10.79-10.79,18.21,0,5.22,2.24,9.51,6.74,12.85,4.49,3.35,12.37,6.58,23.64,9.69.82.28,1.37.44,1.65.48.27.05.5.12.69.21.18,0,.41.05.69.14l9.9,2.47c21.35,5.32,32.03,17.46,32.03,36.43,0,9.17-2.15,17.09-6.46,23.78-4.31,6.69-9.99,12.19-17.05,16.5-7.06,4.31-14.83,7.49-23.3,9.55-8.48,2.06-16.93,3.09-25.36,3.09Z"/>
  <path class="cls-1" d="M1024.88,612.96c-14.85,0-31.21-3.21-49.08-9.62l5.09-26.12c17.78,9.71,33.59,14.57,47.43,14.57,5.96,0,12.26-.94,18.9-2.82,6.64-1.88,12.26-4.83,16.84-8.87,4.58-4.03,6.87-9.26,6.87-15.67,0-5.41-2.11-9.85-6.32-13.33-4.22-3.48-11.09-6.51-20.62-9.07l-13.06-3.44c-12.01-3.21-20.74-7.74-26.19-13.61-5.45-5.86-8.18-13.75-8.18-23.64,0-9.16,1.97-16.93,5.91-23.3,3.94-6.37,9.19-11.52,15.74-15.47,6.55-3.94,13.84-6.8,21.86-8.59,8.02-1.79,16.15-2.68,24.4-2.68,16.04,0,30.56,3.02,43.58,9.07l-4.81,24.74c-12.74-8.43-26.94-12.65-42.62-12.65-11.55,0-20.92,2.36-28.11,7.08-7.2,4.72-10.79,10.79-10.79,18.21,0,5.22,2.25,9.51,6.74,12.85,4.49,3.35,12.37,6.58,23.64,9.69.82.28,1.38.44,1.65.48.28.05.5.12.69.21.18,0,.41.05.69.14l9.9,2.47c21.35,5.32,32.03,17.46,32.03,36.43,0,9.17-2.15,17.09-6.46,23.78-4.31,6.69-9.99,12.19-17.05,16.5-7.06,4.31-14.83,7.49-23.3,9.55-8.48,2.06-16.93,3.09-25.36,3.09Z"/>
  <path class="cls-1" d="M1232.46,609.52c-31.34,0-47.01-12-47.01-36.02,0-6.32.87-13.2,2.61-20.62l18.28-78.08h-33.82l3.99-19.8h59.11l-22.27,98.43c-1.28,5.41-1.92,10.22-1.92,14.43,0,13.47,8.25,20.21,24.74,20.21h29.01l-4.26,21.45h-28.46ZM1215.69,427.1c-2.57,0-3.85-1.15-3.85-3.44,0-.37.05-.73.14-1.1l4.67-23.78c.37-2.47,1.83-3.71,4.4-3.71h17.05c2.56,0,3.85,1.15,3.85,3.44,0,.37-.05.73-.14,1.1l-4.67,23.78c-.37,2.47-1.83,3.71-4.4,3.71h-17.05Z"/>
  <path class="cls-1" d="M1375.15,612.96c-20.62,0-36.22-5.09-46.81-15.26s-15.88-25.25-15.88-45.23c0-13.56,2.29-26.44,6.87-38.63,4.58-12.19,10.88-23,18.9-32.44,8.02-9.44,17.25-16.86,27.7-22.27,10.45-5.41,21.54-8.11,33.27-8.11,16.31,0,29.49,5.27,39.52,15.81,10.04,10.54,15.05,24.7,15.05,42.48,0,7.42-1.01,17-3.02,28.73h-110.94c-1.1,5.5-1.65,10.54-1.65,15.12,0,12.28,3.53,21.74,10.58,28.39,7.06,6.65,17.14,9.97,30.24,9.97,17.05,0,36.06-5.18,57.05-15.53l-4.95,25.16c-19.34,7.88-37.99,11.82-55.95,11.82ZM1427.94,518.38c.92-4.31,1.38-8.2,1.38-11.69,0-10.45-2.96-18.72-8.87-24.81-5.91-6.09-13.91-9.14-23.99-9.14-11.82,0-22.46,4.17-31.89,12.51-9.44,8.34-16.08,19.38-19.93,33.13h83.3Z"/>
  <path class="cls-2" d="M1598.67,403.74h26.26l-117.4,231.36h-25.98l117.12-231.36Z"/>
  <path class="cls-2" d="M1650.09,564.43l116.85-43.58-116.85-43.99v-25.02l145.3,57.46v22.82l-145.3,57.46v-25.16Z"/>
</svg>