<?xml version="1.0" encoding="utf-8"?>
<!-- Generator: Adobe Illustrator 27.5.0, SVG Export Plug-In . SVG Version: 6.00 Build 0)  -->
<svg version="1.1" id="Layer_1" xmlns="http://www.w3.org/2000/svg" xmlns:xlink="http://www.w3.org/1999/xlink" x="0px" y="0px"
	 viewBox="0 0 24 24" style="enable-background:new 0 0 24 24;" xml:space="preserve">
<style type="text/css">
	.st0{fill:#fbfbfb;}
</style>
<path class="st0" d="M6.2,22.6H1.3V8.3h4.8V22.6z M3.7,6.3L3.7,6.3c-1.6,0-2.6-1-2.6-2.5s1-2.5,2.6-2.5s2.5,1,2.6,2.5
	C6.3,5.3,5.2,6.3,3.7,6.3z M22.8,22.6H18v-7.9c0-1.8-0.5-3.2-2.2-3.2c-1.3,0-1.9,0.9-2.3,1.7c-0.1,0.3-0.1,0.8-0.1,1v8.4H8.5V8.3
	h4.8v1.9c0.6-0.9,1.7-2.3,4.2-2.3c3.1,0,5.5,1.9,5.5,6.4v8.3H22.8z"/>
</svg>
