<?xml version="1.0" encoding="utf-8"?>
<!-- Generator: Adobe Illustrator 27.5.0, SVG Export Plug-In . SVG Version: 6.00 Build 0)  -->
<svg version="1.1" id="Layer_1" xmlns="http://www.w3.org/2000/svg" xmlns:xlink="http://www.w3.org/1999/xlink" x="0px" y="0px"
	 viewBox="0 0 24 24" style="enable-background:new 0 0 24 24;" xml:space="preserve">
<style type="text/css">
	.st0{fill:url(#SVGID_1_);}
	.st1{opacity:5.000000e-02;enable-background:new    ;}
	.st2{opacity:7.000000e-02;enable-background:new    ;}
	.st3{fill:#FFFFFF;}
</style>
<g>
	
		<linearGradient id="SVGID_1_" gradientUnits="userSpaceOnUse" x1="397.0478" y1="-1208.0372" x2="437.0054" y2="-1208.0372" gradientTransform="matrix(0.5833 0 0 -0.5833 -231.2623 -692.9167)">
		<stop  offset="0" style="stop-color:#202C39"/>
		<stop  offset="1" style="stop-color:#202C39"/>
	</linearGradient>
	<path class="st0" d="M12,0.3C5.6,0.3,0.3,5.6,0.3,12c0,5.3,3.5,9.6,8.1,11.2h7.2c4.7-1.5,8.1-5.9,8.1-11.2
		C23.7,5.6,18.3,0.3,12,0.3z"/>
	<path class="st1" d="M15.5,22.5v-3.4c0-0.4-0.1-1.1-0.4-1.5c3.3-0.7,4.9-2.5,4.9-5.8c0-1.3-0.4-2.4-1.2-3.4
		c0.1-0.1,0.2-0.3,0.2-0.4c0.1-0.8,0-1.3-0.1-1.6V6.2c-0.1-0.4-0.3-0.8-0.3-0.8l-0.1-0.2L18.3,5H18h-0.2c0,0-0.1,0-0.3,0
		c-0.2,0-0.6,0-0.9,0.1h-0.1c-0.1,0.1-0.6,0.3-1.1,0.7C15.2,5.9,15,6,14.9,6.1C14,6,13.2,5.9,12.2,5.9s-2,0.1-2.9,0.3
		C9.1,6.1,8.8,6,8.6,5.9C8.1,5.6,7.7,5.4,7.3,5.2H7.2c-0.4-0.1-0.7-0.1-1-0.1c-0.2,0-0.3,0-0.3,0H5.7H5.5v0.2v0.2
		c0,0-0.1,0.3-0.2,0.8v0.1C5.1,6.8,5,7.2,5.1,8.1c0,0.2,0.1,0.4,0.1,0.5C4.5,9.5,4.1,10.7,4.1,12c0,3.3,1.6,5.2,4.9,5.8
		c-0.1,0.2-0.2,0.4-0.3,0.7c-0.1,0-0.2,0.1-0.3,0.1c-0.1,0-0.3,0-0.4,0c-0.4,0-0.7-0.1-0.8-0.2c-0.2-0.1-0.4-0.4-0.8-0.9
		s-0.7-0.9-1.2-1.1C4.6,16.1,4.3,16,3.8,16c-0.1,0-0.2,0-0.2,0c-0.3,0-0.6,0.2-0.7,0.4c-0.1,0.2-0.1,0.4-0.1,0.7
		c0.1,0.3,0.4,0.5,0.8,0.7c0.1,0.1,0.4,0.4,0.6,0.5c0.1,0.2,0.2,0.4,0.3,0.5c0.1,0.1,0.1,0.3,0.2,0.4C5,19.9,5.8,20.6,6,20.6
		C6.4,20.9,7.3,21,7.7,21h0.1l0,0c0.1,0,0.3,0,0.6,0v1.4c0,0.3-0.3,0.4-0.7,0.4L8.1,23c1.2,0.4,2.4,0.7,3.9,0.7s2.7-0.2,3.9-0.7
		l0.4-0.2C15.9,22.9,15.5,22.8,15.5,22.5z"/>
	<path class="st2" d="M16,23.1c-0.2,0-0.7-0.1-0.7-0.4v-3.4c0-0.5-0.2-1.3-0.4-1.7C18.4,17,20,15.1,20,12c0-1.3-0.4-2.4-1.2-3.4
		C18.9,8.4,18.9,8.2,19,8c0.1-0.7,0-1.2-0.1-1.5V6.2c-0.1-0.4-0.2-0.8-0.2-0.8l-0.1-0.2h-0.2c0,0-0.1,0-0.3,0c-0.2,0-0.6,0-0.9,0.1
		H17c-0.4,0.1-0.8,0.3-1.4,0.5C15.4,6,15.2,6.2,15,6.3c-1-0.1-2-0.2-3-0.2s-2,0.1-2.9,0.4C8.9,6.3,8.6,6.2,8.5,6.1
		C7.9,5.8,7.6,5.7,7.2,5.5H7.1C6.7,5.4,6.4,5.4,6.2,5.4c-0.2,0-0.3,0-0.3,0H5.7v0.2c0,0-0.1,0.3-0.2,0.8v0.1C5.4,6.8,5.3,7.2,5.4,8
		c0,0.2,0.1,0.4,0.2,0.7C4.8,9.5,4.4,10.7,4.4,12c0,3.3,1.6,5.1,5.1,5.6c-0.2,0.3-0.4,0.7-0.4,1.1c-0.2,0.1-0.4,0.1-0.4,0.1
		c-0.2,0-0.3,0-0.4,0c-0.4,0-0.8-0.1-1-0.2c-0.3-0.2-0.6-0.4-0.9-1c-0.2-0.3-0.6-0.8-1-1s-0.8-0.3-1.1-0.3c-0.1,0-0.1,0-0.2,0
		c-0.2,0-0.4,0.1-0.4,0.3c-0.1,0.1-0.1,0.3,0,0.4c0.1,0.3,0.4,0.4,0.7,0.5c0.1,0.3,0.4,0.7,0.7,1C5,18.7,5.1,19,5.2,19.1
		c0,0.1,0.1,0.3,0.1,0.4c0.2,0.4,0.8,0.9,1.1,1.1c0.4,0.3,1.3,0.3,1.7,0.4h0.1c0.2,0,0.4,0,0.9-0.1v1.9c0,0.4-0.6,0.4-0.7,0.4h0.1
		c1.1,0.4,2.4,0.5,3.5,0.5s2.4-0.2,3.5-0.5L16,23.1z"/>
	<path class="st3" d="M19.4,11.9c0-1.3-0.4-2.4-1.2-3.3c0.1-0.2,0.2-0.4,0.2-0.8c0.1-0.7,0-1.2-0.1-1.5C18.1,5.9,18,5.7,18,5.7
		s-0.4-0.1-0.9,0.1c-0.4,0.2-0.8,0.3-1.4,0.5c-0.3,0.2-0.4,0.3-0.7,0.4c-1-0.3-2-0.4-3-0.4c-1.1,0-2,0.1-3,0.4
		C8.8,6.7,8.6,6.5,8.4,6.3C7.7,6.1,7.4,5.9,7,5.8C6.5,5.6,6,5.7,6,5.7S5.8,6,5.7,6.3c0,0.4-0.1,0.9,0,1.6c0,0.3,0.1,0.5,0.2,0.8
		c-0.8,0.9-1.2,2-1.2,3.3c0,3.4,1.9,5,5.3,5.3c-0.4,0.4-0.7,1-0.8,1.5c-0.2,0.1-0.4,0.2-0.7,0.2c-0.6,0.1-1.3,0-1.7-0.2
		c-0.3-0.2-0.7-0.5-1-1.1c-0.2-0.4-0.6-0.8-0.9-0.9c-0.4-0.2-0.8-0.3-1.1-0.2c-0.2,0-0.3,0.2-0.3,0.3c0,0.1,0.3,0.3,0.4,0.4
		c0.2,0.1,0.6,0.4,0.8,0.9c0.2,0.4,0.3,0.5,0.4,1.1c0.1,0.3,0.6,0.7,1,0.9c0.3,0.2,0.9,0.3,1.6,0.3c0.2,0,0.8-0.1,1.2-0.1v2.2
		c0,0.4-0.3,0.7-0.7,0.5c1.1,0.4,2.3,0.5,3.5,0.5s2.4-0.2,3.5-0.5c-0.4,0.1-0.7-0.2-0.7-0.5v-3.4c0-0.8-0.3-1.4-0.8-2
		C17.5,16.9,19.4,15.5,19.4,11.9z M4.7,17.3c-0.1,0-0.1-0.1-0.1-0.2c0-0.1,0.1-0.1,0.2,0C5,17.1,5,17.2,5,17.3
		C4.7,17.3,4.7,17.3,4.7,17.3z M5.4,17.6c0,0.1-0.1,0-0.2,0c-0.1-0.1-0.2-0.2-0.1-0.2c0-0.1,0.1,0,0.2,0C5.4,17.5,5.4,17.6,5.4,17.6
		z M5.7,18.5c-0.1,0-0.2,0-0.2-0.1s-0.1-0.2,0-0.2s0.2,0,0.2,0.1C5.8,18.3,5.8,18.4,5.7,18.5z M6.4,19c0,0.1-0.2,0.1-0.3,0
		c0,0-0.1-0.1,0-0.2c0-0.1,0.2-0.1,0.3,0C6.4,18.7,6.5,18.8,6.4,19z M7,19.5c-0.1,0-0.2-0.1-0.2-0.2c0-0.1,0.1-0.1,0.2-0.1
		s0.2,0.1,0.2,0.2C7.3,19.5,7.2,19.5,7,19.5z M7.9,19.6c-0.1,0-0.2-0.1-0.2-0.2c0-0.1,0.1-0.1,0.2-0.1c0.1,0,0.2,0.1,0.2,0.2
		C8.2,19.5,8.1,19.6,7.9,19.6z M8.8,19.5c-0.1,0-0.3-0.1-0.3-0.2c0-0.1,0.1-0.2,0.3-0.2c0.1,0,0.3,0.1,0.3,0.2
		C9.2,19.5,8.9,19.5,8.8,19.5z"/>
</g>
</svg>
