<?xml version="1.0" encoding="UTF-8"?>
<svg id="Layer_1" data-name="Layer 1" xmlns="http://www.w3.org/2000/svg" viewBox="0 0 384 384">
  <defs>
    <style>
      .cls-1 {
        fill: #202c39;
        stroke-width: 0px;
      }
    </style>
  </defs>
  <path class="cls-1" d="M191.82,325.56c-35.5,0-71,.08-106.51-.02-32.13-.09-58.27-21.46-64.7-52.83-.82-4.01-1.17-8.18-1.18-12.28-.08-45.51-.04-91.02-.06-136.53,0-9.65,1.99-18.84,6.04-27.58,2.44-5.25,3.23-5.4,7.27-1.37,27.23,27.23,54.42,54.49,81.69,81.67,8.58,8.55,16.8,17.63,26.23,25.15,32.4,25.82,78.38,23.81,108.36-4.76,19-18.11,37.24-37.01,55.82-55.56,15.57-15.55,31.11-31.12,46.68-46.68,3.74-3.74,4.67-3.6,6.87,1.12,3.9,8.37,6.17,17.16,6.18,26.42.03,46.51.23,93.02-.06,139.53-.21,34.45-29.05,63.05-63.5,63.69-.62.01-1.25.03-1.87.03-35.75,0-71.5,0-107.26,0Z"/>
  <path class="cls-1" d="M191.94,58.34c35.25,0,70.5.06,105.75-.03,13.35-.03,25.68,3.24,36.91,10.49,3.81,2.46,3.88,3.23.62,6.5-33.93,33.96-67.82,67.96-101.81,101.85-23.13,23.06-59.4,23.26-82.56.27-34.25-33.99-68.26-68.22-102.37-102.36-3.02-3.02-2.91-3.81.81-6.21,10.32-6.66,21.61-10.39,33.9-10.43,36.25-.12,72.5-.04,108.75-.04v-.04Z"/>
</svg>